<?xml version="1.0" encoding="UTF-8"?>
<svg width="700pt" height="700pt" version="1.1" viewBox="0 0 700 700" xmlns="http://www.w3.org/2000/svg" xmlns:xlink="http://www.w3.org/1999/xlink">
 <defs>
  <symbol id="l" overflow="visible">
   <path d="m37.516-2.25c-1.9297 1.0117-3.9453 1.7734-6.0469 2.2812-2.0938 0.50781-4.2812 0.76562-6.5625 0.76562-6.793 0-12.18-1.8984-16.156-5.7031-3.9688-3.8008-5.9531-8.957-5.9531-15.469 0-6.5195 1.9844-11.68 5.9531-15.484 3.9766-3.8008 9.3633-5.7031 16.156-5.7031 2.2812 0 4.4688 0.25781 6.5625 0.76562 2.1016 0.51172 4.1172 1.2656 6.0469 2.2656v8.4531c-1.9492-1.332-3.8711-2.3047-5.7656-2.9219-1.8984-0.625-3.8906-0.9375-5.9844-0.9375-3.7617 0-6.7188 1.2031-8.875 3.6094-2.1484 2.4062-3.2188 5.7266-3.2188 9.9531 0 4.2109 1.0703 7.5156 3.2188 9.9219 2.1562 2.4062 5.1133 3.6094 8.875 3.6094 2.0938 0 4.0859-0.30469 5.9844-0.92188 1.8945-0.625 3.8164-1.5977 5.7656-2.9219z"/>
  </symbol>
  <symbol id="d" overflow="visible">
   <path d="m27.453-22.281c-0.85547-0.40625-1.7109-0.70312-2.5625-0.89062-0.84375-0.19531-1.6953-0.29688-2.5469-0.29688-2.5234 0-4.4609 0.80859-5.8125 2.4219-1.3555 1.6172-2.0312 3.9297-2.0312 6.9375v14.109h-9.7969v-30.625h9.7969v5.0312c1.25-2.0078 2.6914-3.4727 4.3281-4.3906 1.6328-0.91406 3.5859-1.375 5.8594-1.375 0.33203 0 0.6875 0.015625 1.0625 0.046875 0.38281 0.023438 0.94141 0.078125 1.6719 0.17188z"/>
  </symbol>
  <symbol id="c" overflow="visible">
   <path d="m35.281-15.391v2.7812h-22.891c0.23828 2.3047 1.0664 4.0273 2.4844 5.1719 1.4258 1.1484 3.4141 1.7188 5.9688 1.7188 2.0508 0 4.1562-0.30078 6.3125-0.90625 2.1641-0.61328 4.3906-1.5391 6.6719-2.7812v7.5469c-2.3125 0.875-4.6328 1.5391-6.9531 1.9844-2.3125 0.44531-4.625 0.67188-6.9375 0.67188-5.543 0-9.8516-1.4062-12.922-4.2188-3.0742-2.8203-4.6094-6.7734-4.6094-11.859 0-5 1.5039-8.9258 4.5156-11.781 3.0195-2.8633 7.1758-4.2969 12.469-4.2969 4.8125 0 8.6602 1.4492 11.547 4.3438 2.8945 2.8984 4.3438 6.7734 4.3438 11.625zm-10.062-3.2656c0-1.8516-0.54688-3.3477-1.6406-4.4844-1.0859-1.1445-2.5-1.7188-4.25-1.7188-1.8984 0-3.4375 0.53906-4.625 1.6094-1.1797 1.0625-1.9141 2.5938-2.2031 4.5938z"/>
  </symbol>
  <symbol id="h" overflow="visible">
   <path d="m18.438-13.781c-2.043 0-3.5781 0.35156-4.6094 1.0469-1.0312 0.6875-1.5469 1.7031-1.5469 3.0469 0 1.2422 0.41016 2.2148 1.2344 2.9219 0.83203 0.69922 1.9883 1.0469 3.4688 1.0469 1.8438 0 3.3906-0.66016 4.6406-1.9844 1.2578-1.3203 1.8906-2.9727 1.8906-4.9531v-1.125zm14.953-3.6875v17.469h-9.875v-4.5469c-1.3125 1.8672-2.793 3.2266-4.4375 4.0781-1.6367 0.84375-3.6328 1.2656-5.9844 1.2656-3.168 0-5.7422-0.92578-7.7188-2.7812-1.9805-1.8516-2.9688-4.2539-2.9688-7.2031 0-3.5938 1.2344-6.2266 3.7031-7.9062 2.4688-1.6758 6.3477-2.5156 11.641-2.5156h5.7656v-0.76562c0-1.5508-0.60938-2.6875-1.8281-3.4062s-3.125-1.0781-5.7188-1.0781c-2.0938 0-4.0469 0.21484-5.8594 0.64062-1.8047 0.41797-3.4766 1.043-5.0156 1.875v-7.4688c2.0938-0.50781 4.1953-0.89453 6.3125-1.1562 2.1133-0.25781 4.2266-0.39062 6.3438-0.39062 5.5195 0 9.5039 1.0898 11.953 3.2656 2.457 2.1797 3.6875 5.7188 3.6875 10.625z"/>
  </symbol>
  <symbol id="g" overflow="visible">
   <path d="m15.391-39.328v8.7031h10.094v7h-10.094v12.984c0 1.4297 0.28125 2.3906 0.84375 2.8906 0.57031 0.5 1.6953 0.75 3.375 0.75h5.0312v7h-8.3906c-3.8672 0-6.6055-0.80469-8.2188-2.4219-1.6172-1.6133-2.4219-4.3516-2.4219-8.2188v-12.984h-4.875v-7h4.875v-8.7031z"/>
  </symbol>
  <symbol id="f" overflow="visible">
   <path d="m25.547-26.141v-16.406h9.8438v42.547h-9.8438v-4.4375c-1.3555 1.8125-2.8438 3.1406-4.4688 3.9844-1.6172 0.83203-3.4922 1.25-5.625 1.25-3.7734 0-6.8711-1.5-9.2969-4.5-2.4297-3-3.6406-6.8594-3.6406-11.578 0-4.7266 1.2109-8.5859 3.6406-11.578 2.4258-3 5.5234-4.5 9.2969-4.5 2.1133 0 3.9844 0.42188 5.6094 1.2656 1.6328 0.84375 3.1289 2.1641 4.4844 3.9531zm-6.4531 19.828c2.0938 0 3.6914-0.76562 4.7969-2.2969 1.1016-1.5312 1.6562-3.7539 1.6562-6.6719 0-2.9141-0.55469-5.1406-1.6562-6.6719-1.1055-1.5312-2.7031-2.2969-4.7969-2.2969-2.0859 0-3.6797 0.76562-4.7812 2.2969-1.1055 1.5312-1.6562 3.7578-1.6562 6.6719 0 2.918 0.55078 5.1406 1.6562 6.6719 1.1016 1.5312 2.6953 2.2969 4.7812 2.2969z"/>
  </symbol>
  <symbol id="b" overflow="visible">
   <path d="m21-6.3125c2.0938 0 3.6914-0.76562 4.7969-2.2969 1.1016-1.5312 1.6562-3.7539 1.6562-6.6719 0-2.9141-0.55469-5.1406-1.6562-6.6719-1.1055-1.5312-2.7031-2.2969-4.7969-2.2969s-3.7031 0.77344-4.8281 2.3125c-1.1172 1.5312-1.6719 3.75-1.6719 6.6562 0 2.8984 0.55469 5.1172 1.6719 6.6562 1.125 1.543 2.7344 2.3125 4.8281 2.3125zm-6.5-19.828c1.3438-1.7891 2.832-3.1094 4.4688-3.9531 1.6445-0.84375 3.5352-1.2656 5.6719-1.2656 3.7695 0 6.8672 1.5 9.2969 4.5 2.4258 2.9922 3.6406 6.8516 3.6406 11.578 0 4.7188-1.2148 8.5781-3.6406 11.578-2.4297 3-5.5273 4.5-9.2969 4.5-2.1367 0-4.0273-0.42188-5.6719-1.2656-1.6367-0.85156-3.125-2.1758-4.4688-3.9688v4.4375h-9.7969v-42.547h9.7969z"/>
  </symbol>
  <symbol id="a" overflow="visible">
   <path d="m0.6875-30.625h9.7812l8.2344 20.781 7-20.781h9.7969l-12.891 33.531c-1.293 3.4062-2.8047 5.7852-4.5312 7.1406-1.7188 1.3633-3.9922 2.0469-6.8125 2.0469h-5.6562v-6.4375h3.0625c1.6562 0 2.8594-0.26562 3.6094-0.79688 0.75781-0.52344 1.3516-1.4648 1.7812-2.8281l0.26562-0.85938z"/>
  </symbol>
  <symbol id="e" overflow="visible">
   <path d="m5.1406-40.828h17.469c5.1953 0 9.1875 1.1562 11.969 3.4688 2.7812 2.3047 4.1719 5.5859 4.1719 9.8438 0 4.293-1.3906 7.5898-4.1719 9.8906-2.7812 2.3047-6.7734 3.4531-11.969 3.4531h-6.9375v14.172h-10.531zm10.531 7.625v11.406h5.8281c2.0391 0 3.6133-0.49219 4.7188-1.4844 1.1133-1 1.6719-2.4102 1.6719-4.2344 0-1.8203-0.55859-3.2227-1.6719-4.2031-1.1055-0.98828-2.6797-1.4844-4.7188-1.4844z"/>
  </symbol>
  <symbol id="k" overflow="visible">
   <path d="m19.281-24.359c-2.168 0-3.8242 0.78125-4.9688 2.3438-1.1367 1.5547-1.7031 3.7969-1.7031 6.7344 0 2.9297 0.56641 5.1719 1.7031 6.7344 1.1445 1.5625 2.8008 2.3438 4.9688 2.3438 2.1328 0 3.7656-0.78125 4.8906-2.3438 1.1328-1.5625 1.7031-3.8047 1.7031-6.7344 0-2.9375-0.57031-5.1797-1.7031-6.7344-1.125-1.5625-2.7578-2.3438-4.8906-2.3438zm0-7c5.2695 0 9.3828 1.4219 12.344 4.2656 2.957 2.8438 4.4375 6.7812 4.4375 11.812s-1.4805 8.9688-4.4375 11.812c-2.9609 2.8438-7.0742 4.2656-12.344 4.2656-5.293 0-9.4297-1.4219-12.406-4.2656-2.9805-2.8438-4.4688-6.7812-4.4688-11.812s1.4883-8.9688 4.4688-11.812c2.9766-2.8438 7.1133-4.2656 12.406-4.2656z"/>
  </symbol>
  <symbol id="j" overflow="visible">
   <path d="m33.547-39.547v8.6406c-2.2422-1-4.4297-1.7539-6.5625-2.2656-2.125-0.50781-4.1367-0.76562-6.0312-0.76562-2.5234 0-4.3867 0.35156-5.5938 1.0469-1.1992 0.6875-1.7969 1.7617-1.7969 3.2188 0 1.0938 0.40625 1.9492 1.2188 2.5625 0.8125 0.60547 2.2852 1.125 4.4219 1.5625l4.4844 0.90625c4.5312 0.91797 7.7539 2.3086 9.6719 4.1719 1.9141 1.8555 2.875 4.4961 2.875 7.9219 0 4.5-1.3398 7.8516-4.0156 10.047-2.668 2.1992-6.7461 3.2969-12.234 3.2969-2.5859 0-5.1836-0.25-7.7969-0.75-2.6055-0.48828-5.2109-1.2188-7.8125-2.1875v-8.875c2.6016 1.3867 5.125 2.4297 7.5625 3.125 2.4375 0.69922 4.7852 1.0469 7.0469 1.0469 2.2891 0 4.0469-0.37891 5.2656-1.1406 1.2266-0.76953 1.8438-1.8633 1.8438-3.2812 0-1.2812-0.41797-2.2656-1.25-2.9531-0.83594-0.69531-2.4922-1.3164-4.9688-1.8594l-4.0625-0.90625c-4.0859-0.875-7.0742-2.2656-8.9688-4.1719-1.8867-1.9141-2.8281-4.5-2.8281-7.75 0-4.0625 1.3125-7.1875 3.9375-9.375s6.3984-3.2812 11.328-3.2812c2.2383 0 4.5391 0.17188 6.9062 0.51562 2.375 0.33594 4.8281 0.83594 7.3594 1.5z"/>
  </symbol>
  <symbol id="i" overflow="visible">
   <path d="m33.094-25.547c1.2383-1.8945 2.707-3.3359 4.4062-4.3281 1.707-0.98828 3.582-1.4844 5.625-1.4844 3.5195 0 6.1953 1.0859 8.0312 3.25 1.8438 2.168 2.7656 5.3203 2.7656 9.4531v18.656h-9.8438v-15.969c0.019531-0.23828 0.035156-0.48438 0.046875-0.73438 0.007812-0.25781 0.015625-0.625 0.015625-1.0938 0-2.1758-0.32422-3.75-0.96875-4.7188-0.63672-0.97656-1.6641-1.4688-3.0781-1.4688-1.8672 0-3.3047 0.76562-4.3125 2.2969-1.0117 1.5312-1.5391 3.7461-1.5781 6.6406v15.047h-9.8438v-15.969c0-3.3945-0.29297-5.5781-0.875-6.5469-0.58594-0.97656-1.6211-1.4688-3.1094-1.4688-1.875 0-3.3242 0.77344-4.3438 2.3125-1.0234 1.543-1.5312 3.7461-1.5312 6.6094v15.062h-9.8438v-30.625h9.8438v4.4844c1.1953-1.7266 2.5703-3.0312 4.125-3.9062 1.5625-0.875 3.2852-1.3125 5.1719-1.3125 2.1133 0 3.9766 0.51172 5.5938 1.5312 1.625 1.0234 2.8594 2.4492 3.7031 4.2812z"/>
  </symbol>
 </defs>
 <g>
  <path d="m128.19 327.34-6.6523-0.84375c1.9492 5.6641 1.125 20.133 19.852 28.09l-8.5547 5.3867c7.8633 6.2734 18.738 16.867 31.996 20.699l-8.9766 11.934c3.2188 1.0625 15.023 6.7891 32.523 8.8711l-4.4375 6.2305c3.4414 1.3516 6.1445 8.1562 27.562 6.8633l-1.9023 5.4922c4.8555 1.0273 8.7383 5.3789 30.414 3.6953l-3.9062 3.4844c8.5312 0.90234 19.742 4.0898 36.43 1.7969l-2.1133 7.707c5.4883-0.26953 12.262-8.5273 62.445 2.5273-12.469 0.14453-25.578-0.78125-31.684-3.5586l0.46875 4.8125c-6.5742-2.6992-13.5-4.3438-21.129-4.5781 1.2891 1.7617 1.5273 3.7539 2.3477 5.0469-8.9219-2.9336-17.609-5.3984-24.301-4.2266l0.82031 5.7539c-7.7461-2.2305-14.672-3.5234-18.781-1.7617l3.4062 7.1602c-8.5703-1.293-16.082-0.9375-23.359 0.46875l5.0469 10.094c-7.3945-1.293-15.496 2.2305-23.594 6.9258l7.2773 6.8086c-9.9766-0.11719-16.551 3.168-19.602 10.328 3.168 0.23438 6.2188 1.4102 8.9219 3.6406-15.73 3.7578-8.8047 9.1562-36.273 31.578-0.35156 0.23438-0.70312 0.46875-1.0547 0.82031 0.35156-0.11719 0.70313-0.11719 1.0547-0.11719 35.332-4.2266 34.277 4.4609 48.012-4.2266-0.35156 3.5234-1.5273 6.5742-3.6406 8.9219 7.2773 2.8164 14.32 0.46875 21.133-6.9258l-0.35156 10.094c9.1562-2.582 17.254-5.8672 21.48-12.207l3.7578 10.68c5.9883-4.2266 11.621-9.3906 16.668-16.434l2.6992 7.3945c4.2266-1.7617 8.0977-7.6289 11.855-14.672l3.5195 4.5781c5.5195-3.9922 9.7422-11.973 13.852-20.426 0.35156 1.5273 1.6445 3.0508 1.9961 5.2812 5.1641-5.6328 8.8047-11.855 11.504-18.43l3.168 3.7578c2.707-8.0234 15.43-22.012 26.258-32.004v7.1484l5.5977-5.4922 1.4766 1.582 1.6875-3.4844h2.4375c10.883 10.004 23.801 24.16 26.633 32.25l3.168-3.7578c2.582 6.5742 6.3398 12.797 11.387 18.43 0.35156-2.2305 1.6445-3.7578 1.9961-5.2812 4.1094 8.4531 8.4531 16.434 13.969 20.426l3.5195-4.5781c3.7578 7.043 7.6289 12.914 11.738 14.672l2.8164-7.3945c5.0469 7.043 10.566 12.207 16.668 16.434l3.7578-10.68c4.1094 6.3398 12.324 9.625 21.363 12.207l-0.23438-10.094c6.8086 7.3945 13.852 9.7422 21.129 6.9258-2.2305-2.3477-3.4062-5.3984-3.7578-8.9219 13.852 8.6875 12.793 0 48.012 4.2266 0.35156 0 0.70312 0 1.0547 0.11719-0.35156-0.35156-0.58594-0.58594-0.94141-0.82031-27.586-22.422-20.543-27.82-36.391-31.578 2.8164-2.2305 5.7539-3.4023 9.0391-3.6406-3.168-7.1602-9.7422-10.449-19.723-10.328l7.3945-6.8086c-8.2148-4.6953-16.199-8.2148-23.711-6.9258l5.1641-10.094c-7.2773-1.4062-14.91-1.7617-23.359-0.46875l3.2891-7.1602c-4.1094-1.7617-11.035-0.46875-18.781 1.7617l0.9375-5.7539c-6.6914-1.1719-15.496 1.293-24.414 4.2266 0.82031-1.293 1.0547-3.2891 2.4648-5.0469-7.6289 0.23438-14.672 1.8789-21.129 4.5781l0.35156-4.8125c-6.043 2.7812-19.18 3.707-31.703 3.5586 51.727-11.332 55.461-2.8555 62.406-2.5273l-2.1133-7.707c16.805 2.2812 27.801-0.87891 36.43-1.7969l-3.8008-3.4844c20.926 1.8594 26-2.7539 30.309-3.6953l-1.7969-5.4922c20.887 1.2305 23.969-5.3828 27.457-6.7578l-4.3281-6.3359c17.465-2.0781 28.902-7.7031 32.418-8.8711l-8.8711-11.934c13.84-4.0625 25.848-15.836 31.891-20.699l-8.4492-5.3867c18.867-7.7109 17.969-23.781 19.746-28.09l-6.5469 0.73828c9.9844-8.7031 7.2969-17.703 34.215-48.891 1.1211-1.1211 11.336-11.621 12.566-12.883-35.645 6.1211-34.559 9.6992-62.195 11.828-5.8086 0.42188-10.348 0.73828-15.102 2.8516l3.4844-5.3867c-4.832-0.13672-19.082-7.6562-34.105 6.5469l-1.582-9.9258c-8.1719 4.2031-22.379 9.5781-31.785 20.805l-7.2852-13.094c-3.8477 4.2109-12.77 11.547-21.332 26.082l-3.9062-6.5469c-3.0586 3.0156-9.4531 1.8203-17.426 22.387l-4.2227-3.8008c-2.4727 3.3555-9.0625 6.5234-15.629 25.977l-1.582-4.9609c-4.0469 7.0039-11.633 16.074-16.578 32.629l-5.3867-4.4336c4.3672-7.125 6.8125-8.4531 11.617-13.621l-8.4492-3.0625c13.766-17.055 17.844-32.277 20.906-38.965l-6.6523 2.0078c17.07-23.562 15.512-32.297 16.789-35.797l-6.9688-2.0078c15.605-23.152 10.664-29.621 11.508-33.582l-9.3984 0.42188c9.7891-21.008 11.395-37.906 12.039-40.656l-16.895 1.2695c5.332-16.133 2.0547-35.105 0.94922-48.047l-10.98 5.5977c5.4648-26.113-10.691-36.703-13.199-40.973-5.1797 11.691-3.4961 7.7383-3.8008 8.6602-1.1797-17.238-12.496-21.422-25.66-72.969-0.31641-2.5156-0.625-2.1641-8.0273-21.016-1.3086 9.0703-3.1289 34.961-22.281 73.707-3.5898 7.4961-6.2305 12.777-6.7578 20.383-0.15625-0.3125-3.4609-8.543-3.5898-8.8711-2.5977 4.4023-18.824 14.844-13.516 41.184l-10.984-5.5977c-1.082 12.148-4.5039 31.32 0.73828 48.047l-17-1.2695c0.92578 3.9141 2.8281 20.773 12.039 40.762l-9.293-0.42188c0.91406 4.418-4.5625 9.6875 11.301 33.473l-6.8633 2.0078c1.3633 3.8047-0.36328 12.176 16.578 35.797l-6.6523-2.1133c3.6445 7.9219 7.2461 21.762 20.805 39.07l-8.3438 3.0625c5.7461 6.25 7.4297 6.7852 11.617 13.836l-5.0703 4.2227c-2.5352-8.3398-5.9141-15.945-10.453-23.02l-5.8086-9.293-1.793 4.9648c-3.0625-9.082-6.8633-17.109-12.25-22.703l-3.5898-3.6953-4.1172 3.8008c-3.168-8.4492-7.1797-15.945-12.883-19.535l-4.6484-2.8516-3.8008 6.5469c-4.5391-7.6055-9.9258-14.574-16.367-21.121l-4.8594-4.9648-7.3906 13.094c-6.5469-7.8125-16.262-13.199-25.449-17.742l-6.4414-3.0625-1.4766 9.8203c-9.3984-8.7656-19.219-9.3984-26.398-7.9219l-7.4961 1.4766 3.4844 5.4922c-4.9609-2.1133-9.5039-2.5352-15.312-2.957-22.688-1.7461-25.008-4.2969-62.406-12.461 43.125 46.336 35.109 51.57 46.992 62.516zm254.81 40.973c-1.2773 3.6953 1.8008 10.586-18.586 41.289 5.8086-15.734 12.566-31.047 18.586-41.289zm6.9688 16.578 6.0195 5.0703c1.582-6.457 2.6016-16.703 8.6602-28.617l5.5977 10.559c4.3867-15.109 7.7422-30.035 14.043-39.707l8.1328 7.4961c2.8438-8.668 5.9688-18.887 9.8203-25.027l7.2852 12.566c3.0703-5.7812 7.4414-18.047 18.48-30.52l9.8203 17.633c4.7773-7.1484 1.8359-15.363 23.23-27.035l3.2734 21.016c4.3047-5.3867 11.293-22.984 24.289-24.922-1.6289 6.2812-0.23047 11.113 0.31641 19.957 11.387-8.8047 10.113-14.074 28.512-15.523 6.7578-0.52734 16.367-1.2695 31.469-4.9609-22.414 28.957-15.742 34.328-33.156 42.027l-9.6094 4.2227c7.1953 3.8008 11.531 7.3008 17.953 8.4492-6.9883 10.484-26.789 10.551-32.734 12.145l17.953 11.406c-19.762 14.965-25.812 8.8867-34.004 10.348l11.934 16.051c-16.086 4.8047-27.594 3.9609-34.953 4.5391l8.1328 11.617c-7.5156 1.2539-18.816-0.23047-26.82-1.0547l3.3789 10.453c-10.824 1.707-26.121-1.1094-43.402-3.3789l8.7656 9.5039c-13.539 0.625-25.023-3.0078-29.355-3.8008l2.0078 7.707c-14.043-0.84375-34.637 2.3242-51.531 6.2305 10.336-13.93 21.422-31.355 26.492-44.449zm-55.859 21.965c-18.578-28.953-15.156-32.961-16.578-37.066 5.3828 9.5039 11.297 22.914 16.578 37.066zm-191.34-119.01c9.3984 0.73828 12.566 0.94922 20.699 8.3398l7.9219 7.1797c0.54688-9.7891 1.7188-13.406 0.31641-19.957 12.418 2.1406 18.977 17.922 24.395 25.027l3.0625-21.121c21.363 11.652 18.688 20.051 23.336 26.926l9.8203-17.527c11.578 13.543 15.594 25.457 18.27 30.52l7.3906-12.566c3.9062 6.1562 6.8594 15.785 9.9258 25.133l8.0273-7.4961c6.418 9.9297 10.352 26.613 14.469 40.34l5.2812-11.195c6.4648 13.387 7.3633 23.344 8.6602 28.406l6.0195-4.9609c5.0703 13.305 16.473 30.941 26.508 44.457-13.543-3.082-37.91-7.293-51.742-6.2305l2.1133-7.707c-4.6484 0.85547-15.809 4.418-29.355 3.8008l8.8711-9.5039c-16.344 2.1406-32.508 5.1133-43.508 3.3789l3.5898-10.453c-7.3242 0.71484-18.848 2.2617-27.035 1.0547l8.3438-11.617c-6.793-0.53125-19 0.25781-35.27-4.5391l11.934-16.051c-8.2148-1.418-14.387 4.5508-33.898-10.348l17.953-11.406c-8.6602-2.0625-25.633-1.4297-32.629-12.145 6.6211-1.1836 11.484-5.1914 17.633-8.5547-11.668-6.3086-16.594-3.1797-25.344-19.641-3.2734-6.0195-7.8125-14.359-17.215-26.504 15.191 3.6914 24.699 4.4297 31.457 4.9609z"/>
  <use x="70" y="728" xlink:href="#l"/>
  <use x="111.097656" y="728" xlink:href="#d"/>
  <use x="138.714844" y="728" xlink:href="#c"/>
  <use x="176.695312" y="728" xlink:href="#h"/>
  <use x="214.484375" y="728" xlink:href="#g"/>
  <use x="241.253906" y="728" xlink:href="#c"/>
  <use x="279.234375" y="728" xlink:href="#f"/>
  <use x="338.816406" y="728" xlink:href="#b"/>
  <use x="378.902344" y="728" xlink:href="#a"/>
  <use x="434.902344" y="728" xlink:href="#e"/>
  <use x="475.945312" y="728" xlink:href="#d"/>
  <use x="503.5625" y="728" xlink:href="#k"/>
  <use x="542.035156" y="728" xlink:href="#j"/>
  <use x="582.367188" y="728" xlink:href="#a"/>
  <use x="618.871094" y="728" xlink:href="#i"/>
  <use x="677.222656" y="728" xlink:href="#b"/>
 </g>
</svg>
